<svg xmlns="http://www.w3.org/2000/svg" viewBox="0 0 195.99 195.99"><defs><style>.cls-1{fill:none;stroke:#054c7f;stroke-miterlimit:10;}.cls-2{fill:#8bc53f;}.cls-3{fill:#054c7f;}.cls-4{fill:#25a9e0;}</style></defs><title>EXPERT TEAM</title><g id="Layer_2" data-name="Layer 2"><g id="Layer_1-2" data-name="Layer 1"><path d="M77.51,125.45v2.19H69.62V116.86h7.75V119H72.21v2.09h4.42v2H72.21v2.29Z"/><path d="M80.73,116.86l2.45,3.72,2.45-3.72h2.8l-3.89,5.46,3.76,5.31H85.5l-2.32-3.57-2.32,3.57H78l3.76-5.31-3.89-5.46Z"/><path d="M89.37,127.63V116.86h4.79a3.41,3.41,0,0,1,1.48.32,3.78,3.78,0,0,1,1.15.83,4,4,0,0,1,.76,1.17,3.37,3.37,0,0,1,.28,1.32,3.65,3.65,0,0,1-.26,1.37,3.89,3.89,0,0,1-.73,1.17,3.42,3.42,0,0,1-1.13.82,3.5,3.5,0,0,1-1.47.3H92v3.48ZM92,122h2.12a1,1,0,0,0,.79-.38,1.64,1.64,0,0,0,.33-1.11,1.86,1.86,0,0,0-.1-.65,1.32,1.32,0,0,0-.28-.46,1.07,1.07,0,0,0-.4-.27A1.27,1.27,0,0,0,94,119H92Z"/><path d="M107.06,125.45v2.19H99.17V116.86h7.75V119h-5.15v2.09h4.42v2h-4.42v2.29Z"/><path d="M108.67,127.63V116.86h5.06a3.37,3.37,0,0,1,1.46.32,3.87,3.87,0,0,1,1.93,2,3.37,3.37,0,0,1,.28,1.32,3.65,3.65,0,0,1-.49,1.84,3.35,3.35,0,0,1-.58.74,3.48,3.48,0,0,1-.77.55l2.58,4h-2.92L113,124.16h-1.69v3.48Zm2.59-5.65h2.37a1,1,0,0,0,.79-.42,1.66,1.66,0,0,0,.33-1.07,1.47,1.47,0,0,0-.38-1.06,1.13,1.13,0,0,0-.82-.39h-2.29Z"/><path d="M127.68,119h-3.41v8.59h-2.59V119h-3.43v-2.19h9.44Z"/><path d="M85.49,136.28H81.62v9.56H80.2v-9.56H76.33v-1.21h9.17Z"/><path d="M94.74,144.63v1.21H87.12V135.07H94.6v1.21H88.54v3.49h5.26v1.14H88.54v3.72Z"/><path d="M95.59,145.85l4.62-10.78h1.17l4.6,10.78h-1.52l-1.33-3.16H98.42l-1.31,3.16Zm5.2-9.2-2.09,5h4.11Z"/><path d="M117.18,145.85v-8.33l-3.73,6.39h-.81l-3.75-6.39v8.33h-1.42V135.07H109l4.06,7,4.08-7h1.49v10.78Z"/><circle class="cls-1" cx="98" cy="98" r="97.5"/><path class="cls-2" d="M74.6,71.57S64.19,81.69,61.65,89.29c3-.36,4.62-1,6.6,4.63,2,1.43,2.89,2.75,4.48,1.9,0,0,2-6.53,5.94-6.18V83.83S73.53,82.95,74.6,71.57Z"/><path class="cls-2" d="M121.44,71.57s10.41,10.12,12.95,17.73c-3-.36-4.62-1-6.6,4.63-2,1.43-2.89,2.75-4.48,1.9,0,0-2-6.53-5.94-6.18V83.83S122.51,82.95,121.44,71.57Z"/><path class="cls-3" d="M135.57,89a17.09,17.09,0,0,0-2-4.5,8.82,8.82,0,0,0-1.34-2.08c-1.15-1.67-2.47-3.35-3.8-4.92a31.52,31.52,0,0,0,.42-5.13,30.89,30.89,0,1,0-61.77,0,31.52,31.52,0,0,0,.43,5.15C64.08,80.8,60.75,87.68,60.42,89L60,90.85l1.73-.69a5.16,5.16,0,0,1,3.4-.1,2.55,2.55,0,0,1,1.34,1.57c1,2.71,2.41,4.6,4.05,5.3a3.62,3.62,0,0,0,1.43.3,3.39,3.39,0,0,0,1.39-.3l.42-.19.12-.45c.36-1.34,1.62-4.54,3.59-5.55L77,99.56a3.49,3.49,0,0,0,.54,2.76,4.72,4.72,0,0,0,3.93,1.61c1.48,0,2.91,0,4.16,0,1.55,0,2.82,0,3.57,0a3.62,3.62,0,0,0,.66,1.67c.85,1.17,2.37,1.78,4.52,1.83,1.77,0,3.25.06,4.43.06,2,0,3.18,0,3.49-.05a3.49,3.49,0,0,0,2.61-.88,4.78,4.78,0,0,0,1.4-2.63c1.24,0,2.52,0,3.71,0,2.6,0,4.77,0,5.17,0a3.1,3.1,0,0,0,2.32-.78c1-.9,1.49-2.44,1.41-4.58-.05-1.46-.24-4.43-.46-7.86,2,1,3.31,4.22,3.67,5.58l.12.45.42.19a3.39,3.39,0,0,0,1.39.3,3.62,3.62,0,0,0,1.43-.3c1.64-.7,3.08-2.58,4.05-5.3a2.55,2.55,0,0,1,1.34-1.57,5.13,5.13,0,0,1,3.4.1l1.73.69ZM69,72.41a29,29,0,1,1,57.91,0,29.68,29.68,0,0,1-.18,3.19c-2.62-2.93-5-5.25-5.82-6a11.3,11.3,0,0,0-5.72-4.47,4.35,4.35,0,1,0-7.52.07l-.16.06a13.16,13.16,0,0,0-5.32-3.45,5.15,5.15,0,1,0-8.72.08,13.16,13.16,0,0,0-5,3.33l-.28-.11a4.35,4.35,0,1,0-7.53.09,11.3,11.3,0,0,0-5.36,4.17c-.44.41-3.1,3-6.08,6.29A29.65,29.65,0,0,1,69,72.41Zm3.14,22.87a1.59,1.59,0,0,1-.9-.13c-1.12-.48-2.21-2-3-4.17a4.45,4.45,0,0,0-2.37-2.68,5.78,5.78,0,0,0-3.08-.38c1.88-4.48,7.14-10.39,10.6-14a11.38,11.38,0,0,0-.15,1.84,11.24,11.24,0,0,0,4.43,9l.07,0-.21,3.84C74.31,89.48,72.66,93.77,72.17,95.28ZM85.48,102V87.85a1,1,0,1,0-1.93,0V102l-2,0a3.07,3.07,0,0,1-2.41-.81,1.59,1.59,0,0,1-.22-1.22,1,1,0,0,0,0-.22l1.45-27a1,1,0,1,0-1.93-.1l-.52,9.73a9.38,9.38,0,0,1,4.27-15.66,4.3,4.3,0,0,0,4.5-.06l.48.13a13.24,13.24,0,0,0,2.86,18l.16.1L89.27,102C88.53,102,87.16,102,85.48,102Zm18.16,3.07a1.57,1.57,0,0,1-1.17.42h-.2s-1.15.05-3.33.05v-17a1,1,0,1,0-1.93,0v17l-2.6,0c-1.48,0-2.52-.39-3-1a2.07,2.07,0,0,1-.28-1.59,1,1,0,0,0,0-.22l1.72-32a1,1,0,1,0-1.93-.1l-.64,11.93A11.29,11.29,0,0,1,95,63.4a5.11,5.11,0,0,0,5.72-.06,11.29,11.29,0,0,1,4.6,19.42c-.45-6.49-.86-12.1-.87-12.22a1,1,0,1,0-1.93.14c0,.25,1.82,25.06,2,30.69C104.64,103.19,104.32,104.48,103.64,105.11Zm12.6-3.42a1.18,1.18,0,0,1-.86.32h-.17l-2.68,0V87.85a1,1,0,1,0-1.93,0V102c-1.28,0-2.71,0-4.09,0,0-.23,0-.47,0-.72-.1-2.67-.55-9.6-1-16.2a13.23,13.23,0,0,0,3.33-18.27l.41-.12a4.3,4.3,0,0,0,4.47,0,9.33,9.33,0,0,1,5.65,4l0,0,.12.11a9.38,9.38,0,0,1-1.55,11.81c-.37-5.35-.7-9.91-.71-10a1,1,0,1,0-1.93.14c0,.21,1.54,21.15,1.72,25.9A4.09,4.09,0,0,1,116.24,101.69Zm13.84-13.39A4.45,4.45,0,0,0,127.72,91c-.78,2.17-1.87,3.69-3,4.17a1.6,1.6,0,0,1-.9.13c-.49-1.53-2.18-5.89-5.52-6.66-.08-1.2-.16-2.42-.25-3.64a11.26,11.26,0,0,0,4.74-9.21,11.4,11.4,0,0,0-.13-1.73c3.46,3.61,8.63,9.44,10.5,13.88A5.78,5.78,0,0,0,130.08,88.29Z"/><path class="cls-4" d="M125.69,49.8a1,1,0,0,0,1.36.14,1,1,0,0,0,.14-1.36,38.14,38.14,0,0,0-2.66-3,1,1,0,0,0-1.36,0,1,1,0,0,0,0,1.37A36.18,36.18,0,0,1,125.69,49.8Z"/><path class="cls-4" d="M103.37,36.94a35.49,35.49,0,0,1,3.68.76,1,1,0,0,0,1.18-.69,1,1,0,0,0-.69-1.18,37.36,37.36,0,0,0-3.88-.8,1,1,0,0,0-.29,1.92Z"/><path class="cls-4" d="M110.63,38.85a35.45,35.45,0,0,1,3.44,1.53,1,1,0,0,0,1.3-.43,1,1,0,0,0-.43-1.3A37.39,37.39,0,0,0,111.31,37a1,1,0,0,0-.68,1.81Z"/><path class="cls-4" d="M129.79,56.13a1,1,0,1,0,1.72-.88,38.07,38.07,0,0,0-2-3.45,1,1,0,0,0-1.34-.28,1,1,0,0,0-.28,1.34A36,36,0,0,1,129.79,56.13Z"/><path class="cls-4" d="M117.33,42.26a36,36,0,0,1,3,2.22,1,1,0,0,0,1.36-.15,1,1,0,0,0-.15-1.36,37.73,37.73,0,0,0-3.21-2.34,1,1,0,0,0-1.33.29A1,1,0,0,0,117.33,42.26Z"/><path class="cls-4" d="M134.05,65.77a1,1,0,0,0-.81,1.11,36.44,36.44,0,0,1,.38,3.76,1,1,0,0,0,1,.92h0a1,1,0,0,0,.92-1,38.25,38.25,0,0,0-.4-4A1,1,0,0,0,134.05,65.77Z"/><path class="cls-4" d="M131.32,59.59a35.92,35.92,0,0,1,1.16,3.6,1,1,0,1,0,1.87-.5,37.8,37.8,0,0,0-1.22-3.79,1,1,0,1,0-1.8.69Z"/><path class="cls-4" d="M134.63,73.51a1,1,0,0,0-1,.92,36.34,36.34,0,0,1-.4,3.76,1,1,0,0,0,.8,1.11h.16a1,1,0,0,0,1-.82,38.34,38.34,0,0,0,.43-4A1,1,0,0,0,134.63,73.51Z"/><path class="cls-4" d="M61.32,72.05h0a1,1,0,0,0,1-.94,36.43,36.43,0,0,1,.33-3.76,1,1,0,1,0-1.91-.27,38.33,38.33,0,0,0-.35,4A1,1,0,0,0,61.32,72.05Z"/><path class="cls-4" d="M62.2,64.35a1,1,0,0,0,1.17-.7A36,36,0,0,1,64.48,60a1,1,0,1,0-1.81-.67,37.87,37.87,0,0,0-1.17,3.81A1,1,0,0,0,62.2,64.35Z"/><path class="cls-4" d="M68.61,50.34A1,1,0,0,0,70,50.18a36.15,36.15,0,0,1,2.48-2.84,1,1,0,0,0,0-1.37,1,1,0,0,0-1.36,0,38.26,38.26,0,0,0-2.62,3A1,1,0,0,0,68.61,50.34Z"/><path class="cls-4" d="M64.67,57A1,1,0,0,0,66,56.56a35.92,35.92,0,0,1,1.84-3.3,1,1,0,0,0-.3-1.34,1,1,0,0,0-1.33.3,37.86,37.86,0,0,0-1.94,3.47A1,1,0,0,0,64.67,57Z"/><path class="cls-4" d="M61.35,74a1,1,0,0,0-.9,1,38.23,38.23,0,0,0,.48,4,1,1,0,0,0,.95.8h.17a1,1,0,0,0,.78-1.12,36.14,36.14,0,0,1-.45-3.75A1,1,0,0,0,61.35,74Z"/><path class="cls-4" d="M88.2,37.86a1,1,0,0,0,.26,0A35.44,35.44,0,0,1,92.13,37a1,1,0,0,0-.31-1.91,37.36,37.36,0,0,0-3.87.86,1,1,0,0,0,.26,1.91Z"/><path class="cls-4" d="M95.81,36.59h.06c.7,0,1.41-.06,2.12-.06h0c.54,0,1.09,0,1.63,0a1,1,0,0,0,.09-1.94c-.58,0-1.15,0-1.73,0-.74,0-1.49,0-2.23.07a1,1,0,0,0,.06,1.94Z"/><path class="cls-4" d="M81,40.7a1,1,0,0,0,.45-.11A35.57,35.57,0,0,1,84.89,39a1,1,0,0,0-.71-1.8,37.47,37.47,0,0,0-3.61,1.66A1,1,0,0,0,81,40.7Z"/><path class="cls-4" d="M74.6,45a1,1,0,0,0,.62-.22,36,36,0,0,1,3-2.26,1,1,0,0,0,.27-1.35,1,1,0,0,0-1.34-.27A37.85,37.85,0,0,0,74,43.28a1,1,0,0,0-.13,1.37A1,1,0,0,0,74.6,45Z"/><ellipse class="cls-2" cx="84.38" cy="62.89" rx="3.31" ry="3.33"/><ellipse class="cls-2" cx="111.41" cy="62.89" rx="3.31" ry="3.33"/><ellipse class="cls-2" cx="97.82" cy="59.11" rx="4.14" ry="4.17"/></g></g></svg>