<svg xmlns="http://www.w3.org/2000/svg" viewBox="0 0 195.99 195.99"><defs><style>.cls-1,.cls-5{fill:none;}.cls-1{stroke:#054c7f;stroke-miterlimit:10;}.cls-2{fill:#25a9e0;}.cls-3{fill:#8bc53f;}.cls-4{fill:#054c7f;}.cls-5{stroke:#fff;stroke-linecap:round;stroke-linejoin:round;stroke-width:2px;}.cls-6{fill:#fff;}</style></defs><title>LONG TERM LIAISNG</title><g id="Layer_2" data-name="Layer 2"><g id="Layer_1-2" data-name="Layer 1"><path d="M54.64,142.26V131.7h2.54v8.42h5.33v2.14Z"/><path d="M68,142.35a4.87,4.87,0,0,1-2.14-.46,5.37,5.37,0,0,1-1.65-1.21A5.47,5.47,0,0,1,63.19,139a5.41,5.41,0,0,1-.38-2,5.26,5.26,0,0,1,.4-2A5.31,5.31,0,0,1,66,132.08a5.06,5.06,0,0,1,2.12-.44,4.89,4.89,0,0,1,2.14.46,5.31,5.31,0,0,1,1.65,1.22A5.56,5.56,0,0,1,73.31,137a5.26,5.26,0,0,1-.4,2,5.44,5.44,0,0,1-1.09,1.7,5.34,5.34,0,0,1-1.67,1.18A5,5,0,0,1,68,142.35ZM65.39,137a4,4,0,0,0,.18,1.18,3.35,3.35,0,0,0,.51,1,2.5,2.5,0,0,0,.84.71,2.42,2.42,0,0,0,1.15.27,2.31,2.31,0,0,0,1.16-.28,2.63,2.63,0,0,0,.83-.74,3.17,3.17,0,0,0,.5-1,4.25,4.25,0,0,0,.16-1.17,4,4,0,0,0-.18-1.18,3.19,3.19,0,0,0-.52-1,2.56,2.56,0,0,0-.84-.7,2.41,2.41,0,0,0-1.13-.26,2.37,2.37,0,0,0-1.16.28,2.61,2.61,0,0,0-.83.72,3.23,3.23,0,0,0-.5,1A4.05,4.05,0,0,0,65.39,137Z"/><path d="M77.34,136.22v6H74.8V131.7h2l5.13,6.2v-6.2h2.54v10.56h-2Z"/><path d="M93.68,141.23a4,4,0,0,1-1.25.83,3.77,3.77,0,0,1-1.43.27,4.43,4.43,0,0,1-2-.45,5.36,5.36,0,0,1-1.61-1.19A5.64,5.64,0,0,1,86.34,139a5.41,5.41,0,0,1-.4-2.06,5.28,5.28,0,0,1,.4-2.05,5.16,5.16,0,0,1,1.12-1.68A5.33,5.33,0,0,1,89.13,132a5.5,5.5,0,0,1,4.63.2,4,4,0,0,1,1.64,1.69L93.5,135.3a2.56,2.56,0,0,0-1-1.11,2.61,2.61,0,0,0-1.39-.39,2.26,2.26,0,0,0-1.06.25,2.53,2.53,0,0,0-.82.68,3.19,3.19,0,0,0-.53,1,4.07,4.07,0,0,0-.19,1.25,3.82,3.82,0,0,0,.2,1.26,3.12,3.12,0,0,0,.56,1,2.52,2.52,0,0,0,.85.66,2.47,2.47,0,0,0,1.08.24,2.79,2.79,0,0,0,1.3-.32,3.78,3.78,0,0,0,1.16-1v-.36H91.56v-1.77h4.23v5.52H93.68Z"/><path d="M109,133.84h-3.35v8.42h-2.54v-8.42H99.78V131.7H109Z"/><path d="M118,140.12v2.14h-7.73V131.7h7.59v2.14h-5.05v2.05h4.34v2h-4.34v2.25Z"/><path d="M119.6,142.26V131.7h5A3.3,3.3,0,0,1,126,132a3.8,3.8,0,0,1,1.89,2,3.29,3.29,0,0,1,.27,1.29,3.55,3.55,0,0,1-.48,1.8,3.27,3.27,0,0,1-.57.72,3.37,3.37,0,0,1-.75.54l2.53,3.93H126l-2.21-3.41h-1.66v3.41Zm2.54-5.53h2.32a1,1,0,0,0,.77-.41,1.64,1.64,0,0,0,.33-1,1.44,1.44,0,0,0-.37-1,1.11,1.11,0,0,0-.81-.39h-2.25Z"/><path d="M138.81,142.26v-6.32l-2.39,4.6h-1.36l-2.39-4.6v6.32h-2.54V131.7h2.76l2.85,5.52,2.87-5.52h2.74v10.56Z"/><path d="M67.17,160.11V149.55h1.39v9.37H74.7v1.19Z"/><path d="M76.31,160.11V149.56h1.39v10.55Z"/><path d="M79.2,160.11l4.52-10.56h1.15l4.51,10.56H87.89L86.58,157H82l-1.29,3.09Zm5.1-9-2,4.88h4Z"/><path d="M90.84,160.11V149.56h1.39v10.55Z"/><path d="M101.36,151.77a2.29,2.29,0,0,0-.5-.4,4.47,4.47,0,0,0-.7-.35,5,5,0,0,0-.84-.25,4.59,4.59,0,0,0-1-.1,3.08,3.08,0,0,0-1.88.46,1.51,1.51,0,0,0-.6,1.26,1.36,1.36,0,0,0,.17.71,1.38,1.38,0,0,0,.53.48,4.12,4.12,0,0,0,.91.35q.54.15,1.29.31a13.91,13.91,0,0,1,1.54.41,4.56,4.56,0,0,1,1.18.57,2.32,2.32,0,0,1,.74.83,2.58,2.58,0,0,1,.26,1.21,2.58,2.58,0,0,1-1.15,2.24,3.72,3.72,0,0,1-1.26.54,6.89,6.89,0,0,1-1.58.17,7.57,7.57,0,0,1-2.41-.38A6.8,6.8,0,0,1,94,158.73l.67-1.13a3.64,3.64,0,0,0,.64.51,5.32,5.32,0,0,0,.9.45,6.84,6.84,0,0,0,1.08.33,5.65,5.65,0,0,0,1.22.13,3.49,3.49,0,0,0,1.83-.4,1.32,1.32,0,0,0,.65-1.21,1.3,1.3,0,0,0-.21-.75,1.76,1.76,0,0,0-.61-.53,4.88,4.88,0,0,0-1-.39q-.6-.17-1.36-.35a14.09,14.09,0,0,1-1.47-.42,4,4,0,0,1-1.06-.54,2,2,0,0,1-.64-.76,2.43,2.43,0,0,1-.22-1.07,2.91,2.91,0,0,1,.29-1.34,2.83,2.83,0,0,1,.82-1,3.63,3.63,0,0,1,1.25-.6,5.93,5.93,0,0,1,1.58-.2,5.87,5.87,0,0,1,2,.33,5.72,5.72,0,0,1,1.6.88Z"/><path d="M104.37,160.11V149.56h1.39v10.55Z"/><path d="M109.79,152v8.06H108.4V149.55h1.08l6.82,8.23v-8.21h1.39v10.55h-1.18Z"/><path d="M128.12,158.68a4.56,4.56,0,0,1-5.38,1,5.36,5.36,0,0,1-1.62-1.21A5.81,5.81,0,0,1,120,156.8a5.22,5.22,0,0,1-.4-2,5.38,5.38,0,0,1,.39-2,5.47,5.47,0,0,1,1.07-1.7,5,5,0,0,1,1.63-1.17,5.41,5.41,0,0,1,4.67.21,4.31,4.31,0,0,1,1.57,1.67l-1.07.71a3.27,3.27,0,0,0-1.32-1.37,3.79,3.79,0,0,0-1.84-.45,3.27,3.27,0,0,0-1.52.35,3.71,3.71,0,0,0-1.16.92,4.19,4.19,0,0,0-.74,1.32,4.66,4.66,0,0,0-.26,1.56,4.38,4.38,0,0,0,1.1,2.92,3.72,3.72,0,0,0,1.21.9,3.53,3.53,0,0,0,1.52.33,4.23,4.23,0,0,0,3.24-1.67v-1.46h-2.37v-1h3.55v5.27h-1.18Z"/><circle class="cls-1" cx="98" cy="98" r="97.5"/><path class="cls-2" d="M98.57,65.68a8.62,8.62,0,1,0,8.62,8.62A8.62,8.62,0,0,0,98.57,65.68Zm0,11.72a3.11,3.11,0,1,1,3.11-3.11A3.11,3.11,0,0,1,98.57,77.4Z"/><path class="cls-3" d="M73.68,86.84,88.55,71.49l-1-2.07,1.77-2.26L112,43.83l10.34,11.12L107.05,70.6s-4.33-9.15-14.77-3c-1.57,1.87-5.22,6.8-.3,13.29l-12.5,12.7Z"/><path class="cls-4" d="M98.57,69.9a4.4,4.4,0,1,0,4.4,4.4A4.41,4.41,0,0,0,98.57,69.9Zm0,7.08a2.68,2.68,0,1,1,2.68-2.68A2.68,2.68,0,0,1,98.57,77Z"/><path class="cls-4" d="M128.42,50.75,115.81,38a2.11,2.11,0,0,0-3,0l-2.41,2.43a2.11,2.11,0,0,0,0,3L111,44,87.77,67.65a3,3,0,0,0-.91,2.07,2.94,2.94,0,0,0,.64,1.8l-14,14.62L73,85.6a2.11,2.11,0,0,0-3,0L67.57,88a2.11,2.11,0,0,0,0,3l8.56,8.61a2.11,2.11,0,0,0,3,0l2.41-2.43a2.11,2.11,0,0,0,0-3l-.61-.62L89.3,85l-5.7,23.49H82a2.11,2.11,0,0,0-2.11,2.11v2.08A2.11,2.11,0,0,0,82,114.77H90.2a2.11,2.11,0,0,0,2.11-2.11v-2.08a2.11,2.11,0,0,0-2.11-2.11h-1l.89-3.67h15.61l.89,3.67h-.72a2.11,2.11,0,0,0-2.11,2.11v2.08a2.11,2.11,0,0,0,2.11,2.11h8.18a2.11,2.11,0,0,0,2.11-2.11v-2.08a2.11,2.11,0,0,0-2.11-2.11h-1.82L105.6,81.33A9.93,9.93,0,0,0,107.94,71L122.67,55.8l.36.37a2.11,2.11,0,0,0,3,0l2.41-2.43a2.11,2.11,0,0,0,0-3ZM80.3,96l-2.41,2.43a.38.38,0,0,1-.27.11.38.38,0,0,1-.26-.11L68.79,89.8a.38.38,0,0,1,0-.54l2.41-2.43a.38.38,0,0,1,.27-.11.38.38,0,0,1,.26.11l8.56,8.61a.38.38,0,0,1,0,.54Zm-5.58-8.6,14-14.65a9.92,9.92,0,0,0,2.27,8L79.69,92.37Zm15.86,23.21v2.08a.38.38,0,0,1-.38.38H82a.38.38,0,0,1-.38-.38v-2.08a.38.38,0,0,1,.38-.38H90.2A.38.38,0,0,1,90.58,110.58Zm-5.21-2.11,6.29-25.91.58-.59a10,10,0,0,0,1.42,1l-6.2,25.53ZM100.7,84l.83,3.41H94.35l.91-3.75a9.91,9.91,0,0,0,5.44.34Zm1.46,6H93.72l.21-.86h8ZM93.3,91.74h9.27l2.13,8.76H91.18Zm-2.75,11.34.21-.86h14.36l.21.86Zm23.93,7.5v2.08a.38.38,0,0,1-.38.38h-8.18a.38.38,0,0,1-.38-.38v-2.08a.38.38,0,0,1,.38-.38h8.18A.38.38,0,0,1,114.47,110.58Zm-6.07-2.11-4.27-17.59h0a.85.85,0,0,0-.1-.39l-.53-2.17v0a.85.85,0,0,0-.1-.4l-1.07-4.39a9.94,9.94,0,0,0,1.78-1l6.37,25.93Zm-9.84-26a8.19,8.19,0,0,1-5.68-2.28l-.08-.09-.1-.08a8.22,8.22,0,1,1,5.85,2.45Zm8.6-13.23a9.95,9.95,0,0,0-17.93,1.57,1.66,1.66,0,0,1-.64-1.12,1.28,1.28,0,0,1,.37-.83l0,0L112.21,45.2l9.25,9.37Zm20-16.79-2.41,2.43a.38.38,0,0,1-.27.11.37.37,0,0,1-.26-.1L111.65,42.17a.38.38,0,0,1,0-.54l2.41-2.43a.38.38,0,0,1,.27-.11.37.37,0,0,1,.26.1L127.2,52a.38.38,0,0,1,0,.54Z"/><line class="cls-5" x1="110.46" y1="49.99" x2="98.98" y2="61.54"/><circle class="cls-6" cx="112.11" cy="48.42" r="0.85"/><line class="cls-5" x1="84.75" y1="79.65" x2="77.54" y2="86.91"/><circle class="cls-6" cx="86.4" cy="78.08" r="0.85"/></g></g></svg>