<svg xmlns="http://www.w3.org/2000/svg" viewBox="0 0 195.99 195.99"><defs><style>.cls-1{fill:none;stroke:#054c7f;stroke-miterlimit:10;}.cls-2{fill:#8bc53f;}.cls-3{fill:#25a9e0;}.cls-4{fill:#054c7f;}</style></defs><title>TAILORED SOLUTIONS</title><g id="Layer_2" data-name="Layer 2"><g id="Layer_1-2" data-name="Layer 1"><path d="M71.75,120.15H68.62V128H66.23v-7.9H63.08v-2h8.67Z"/><path d="M71,128l4-9.91h1.93l4,9.91H78.31l-.8-2.22H74.3L73.51,128Zm4.93-7.48-1.23,3.68H77.1Z"/><path d="M81.78,128v-9.91h2.38V128Z"/><path d="M86.14,128v-9.91h2.38V126h5v2Z"/><path d="M98.71,128.13a4.58,4.58,0,0,1-2-.43,5,5,0,0,1-1.55-1.14,5.13,5.13,0,0,1-1-1.61,5.08,5.08,0,0,1-.36-1.87,4.93,4.93,0,0,1,.37-1.88,5,5,0,0,1,2.6-2.7,4.75,4.75,0,0,1,2-.41,4.58,4.58,0,0,1,2,.43,5,5,0,0,1,1.55,1.14,5.21,5.21,0,0,1,1.34,3.46,4.93,4.93,0,0,1-.37,1.88,5.11,5.11,0,0,1-1,1.6,5,5,0,0,1-1.56,1.11A4.68,4.68,0,0,1,98.71,128.13Zm-2.49-5a3.69,3.69,0,0,0,.17,1.11,3.1,3.1,0,0,0,.48,1,2.32,2.32,0,0,0,.78.67,2.26,2.26,0,0,0,1.08.25,2.16,2.16,0,0,0,1.09-.26,2.47,2.47,0,0,0,.78-.69,3,3,0,0,0,.47-1,4,4,0,0,0,.15-1.1,3.72,3.72,0,0,0-.17-1.11,3,3,0,0,0-.49-.95,2.38,2.38,0,0,0-.78-.66,2.25,2.25,0,0,0-1.06-.24,2.21,2.21,0,0,0-1.09.26,2.41,2.41,0,0,0-.78.68,3,3,0,0,0-.47,1A3.83,3.83,0,0,0,96.22,123.11Z"/><path d="M105,128v-9.91h4.65a3.08,3.08,0,0,1,1.34.29,3.55,3.55,0,0,1,1.77,1.84,3.09,3.09,0,0,1,.25,1.21,3.35,3.35,0,0,1-.45,1.69,3.08,3.08,0,0,1-.53.68,3.17,3.17,0,0,1-.71.51l2.37,3.68h-2.69l-2.08-3.2h-1.55V128Zm2.38-5.19h2.18a.91.91,0,0,0,.73-.38,1.53,1.53,0,0,0,.3-1,1.35,1.35,0,0,0-.35-1,1,1,0,0,0-.76-.36h-2.11Z"/><path d="M122.18,126v2h-7.25v-9.91H122v2h-4.74v1.93h4.07v1.86h-4.07V126Z"/><path d="M123.66,128v-9.91h3.85a5.9,5.9,0,0,1,2.24.39,4.59,4.59,0,0,1,1.61,1.06,4.38,4.38,0,0,1,1,1.57,5.59,5.59,0,0,1,.33,1.92,5.49,5.49,0,0,1-.36,2,4.38,4.38,0,0,1-1,1.56,4.69,4.69,0,0,1-1.63,1,6,6,0,0,1-2.11.36Zm6.57-5a3.71,3.71,0,0,0-.18-1.19,2.66,2.66,0,0,0-.53-.93,2.31,2.31,0,0,0-.86-.6,3,3,0,0,0-1.15-.21H126V126h1.47a2.87,2.87,0,0,0,1.16-.22,2.36,2.36,0,0,0,.85-.62,2.8,2.8,0,0,0,.52-.94A3.66,3.66,0,0,0,130.23,123.08Z"/><path d="M65.89,137a2.13,2.13,0,0,0-.46-.38,4.22,4.22,0,0,0-.65-.33A4.74,4.74,0,0,0,64,136a4.29,4.29,0,0,0-.89-.09,2.89,2.89,0,0,0-1.76.43,1.42,1.42,0,0,0-.56,1.19,1.28,1.28,0,0,0,.16.67,1.3,1.3,0,0,0,.5.45,3.88,3.88,0,0,0,.85.33q.51.14,1.21.29a12.82,12.82,0,0,1,1.45.38,4.29,4.29,0,0,1,1.1.54,2.18,2.18,0,0,1,.7.78,2.44,2.44,0,0,1,.24,1.13,2.42,2.42,0,0,1-1.08,2.1,3.51,3.51,0,0,1-1.18.5,6.5,6.5,0,0,1-1.48.16,7.1,7.1,0,0,1-2.26-.36,6.39,6.39,0,0,1-1.94-1l.63-1.06a3.46,3.46,0,0,0,.6.47,5,5,0,0,0,.84.43,6.48,6.48,0,0,0,1,.31,5.35,5.35,0,0,0,1.14.12,3.27,3.27,0,0,0,1.71-.38,1.24,1.24,0,0,0,.61-1.13,1.22,1.22,0,0,0-.2-.7,1.65,1.65,0,0,0-.57-.5,4.54,4.54,0,0,0-.94-.37q-.56-.16-1.27-.33a13.13,13.13,0,0,1-1.38-.39,3.8,3.8,0,0,1-1-.5,1.92,1.92,0,0,1-.6-.71,2.28,2.28,0,0,1-.2-1,2.73,2.73,0,0,1,.28-1.26,2.65,2.65,0,0,1,.77-.92,3.41,3.41,0,0,1,1.18-.57,5.95,5.95,0,0,1,3.37.12,5.36,5.36,0,0,1,1.5.82Z"/><path d="M72.93,144.86a4.56,4.56,0,0,1-2-.42,4.88,4.88,0,0,1-1.53-1.13,5.21,5.21,0,0,1-1.34-3.47,5,5,0,0,1,.37-1.9,5.21,5.21,0,0,1,1-1.6A4.91,4.91,0,0,1,71,135.23a4.58,4.58,0,0,1,1.94-.41,4.39,4.39,0,0,1,2,.44,5,5,0,0,1,1.53,1.15,5.2,5.2,0,0,1,1,1.61,5,5,0,0,1,.35,1.84,5,5,0,0,1-.37,1.9,5.2,5.2,0,0,1-1,1.6,4.87,4.87,0,0,1-1.54,1.1A4.58,4.58,0,0,1,72.93,144.86Zm-3.53-5a4.27,4.27,0,0,0,.25,1.46,4,4,0,0,0,.72,1.25,3.44,3.44,0,0,0,1.12.87,3.24,3.24,0,0,0,1.45.32,3.15,3.15,0,0,0,1.48-.34,3.56,3.56,0,0,0,1.11-.89,3.93,3.93,0,0,0,.7-1.25,4.32,4.32,0,0,0,.24-1.41,4.28,4.28,0,0,0-.25-1.46,3.85,3.85,0,0,0-.73-1.24,3.65,3.65,0,0,0-1.12-.86,3.4,3.4,0,0,0-2.91,0,3.52,3.52,0,0,0-1.11.88,4,4,0,0,0-.71,1.24A4.22,4.22,0,0,0,69.39,139.84Z"/><path d="M79.62,144.79v-9.91h1.31v8.79h5.75v1.12Z"/><path d="M91.86,143.73a3,3,0,0,0,1.5-.33,2.72,2.72,0,0,0,1-.87,3.5,3.5,0,0,0,.5-1.23,6.8,6.8,0,0,0,.15-1.4v-5h1.31v5A7.36,7.36,0,0,1,96,141.8a4.46,4.46,0,0,1-.76,1.58,3.65,3.65,0,0,1-1.36,1.08,5.37,5.37,0,0,1-4.1,0,3.73,3.73,0,0,1-1.36-1.11,4.4,4.4,0,0,1-.74-1.59,7.58,7.58,0,0,1-.23-1.85v-5h1.31v5a6.62,6.62,0,0,0,.15,1.43,3.55,3.55,0,0,0,.51,1.22,2.7,2.7,0,0,0,.94.86A3,3,0,0,0,91.86,143.73Z"/><path d="M106,136h-3.56v8.79h-1.31V136H97.6v-1.12H106Z"/><path d="M107.52,144.79V134.9h1.31v9.89Z"/><path d="M115.51,144.86a4.56,4.56,0,0,1-2-.42,4.88,4.88,0,0,1-1.53-1.13,5.21,5.21,0,0,1-1.34-3.47,5,5,0,0,1,.37-1.9,5.21,5.21,0,0,1,1-1.6,4.91,4.91,0,0,1,1.55-1.11,4.58,4.58,0,0,1,1.94-.41,4.39,4.39,0,0,1,2,.44,5,5,0,0,1,1.53,1.15,5.2,5.2,0,0,1,1,1.61,5,5,0,0,1,.35,1.84,5,5,0,0,1-.37,1.9,5.2,5.2,0,0,1-1,1.6,4.87,4.87,0,0,1-1.54,1.1A4.58,4.58,0,0,1,115.51,144.86Zm-3.53-5a4.27,4.27,0,0,0,.25,1.46,4,4,0,0,0,.72,1.25,3.44,3.44,0,0,0,1.12.87,3.24,3.24,0,0,0,1.45.32,3.15,3.15,0,0,0,1.48-.34,3.56,3.56,0,0,0,1.11-.89,3.93,3.93,0,0,0,.7-1.25,4.32,4.32,0,0,0,.24-1.41,4.28,4.28,0,0,0-.25-1.46,3.85,3.85,0,0,0-.73-1.24,3.65,3.65,0,0,0-1.12-.86,3.4,3.4,0,0,0-2.91,0,3.52,3.52,0,0,0-1.11.88,4,4,0,0,0-.71,1.24A4.22,4.22,0,0,0,112,139.84Z"/><path d="M123.52,137.23v7.56h-1.31v-9.91h1l6.39,7.72v-7.7h1.31v9.89h-1.1Z"/><path d="M139.49,137a2.13,2.13,0,0,0-.46-.38,4.22,4.22,0,0,0-.65-.33,4.74,4.74,0,0,0-.79-.24,4.29,4.29,0,0,0-.89-.09,2.89,2.89,0,0,0-1.76.43,1.42,1.42,0,0,0-.56,1.19,1.28,1.28,0,0,0,.16.67,1.3,1.3,0,0,0,.5.45,3.88,3.88,0,0,0,.85.33q.51.14,1.21.29a12.82,12.82,0,0,1,1.45.38,4.29,4.29,0,0,1,1.1.54,2.18,2.18,0,0,1,.7.78,2.44,2.44,0,0,1,.24,1.13,2.42,2.42,0,0,1-1.08,2.1,3.51,3.51,0,0,1-1.18.5,6.5,6.5,0,0,1-1.48.16,7.1,7.1,0,0,1-2.26-.36,6.39,6.39,0,0,1-1.94-1l.63-1.06a3.46,3.46,0,0,0,.6.47,5,5,0,0,0,.84.43,6.48,6.48,0,0,0,1,.31,5.35,5.35,0,0,0,1.14.12,3.27,3.27,0,0,0,1.71-.38,1.24,1.24,0,0,0,.61-1.13,1.22,1.22,0,0,0-.2-.7,1.65,1.65,0,0,0-.57-.5,4.54,4.54,0,0,0-.94-.37q-.56-.16-1.27-.33a13.13,13.13,0,0,1-1.38-.39,3.8,3.8,0,0,1-1-.5,1.92,1.92,0,0,1-.6-.71,2.28,2.28,0,0,1-.2-1,2.73,2.73,0,0,1,.28-1.26,2.65,2.65,0,0,1,.77-.92,3.41,3.41,0,0,1,1.18-.57,5.95,5.95,0,0,1,3.37.12,5.36,5.36,0,0,1,1.5.82Z"/><circle class="cls-1" cx="98" cy="98" r="97.5"/><path class="cls-2" d="M119,66.11h2.35l-.31-5.64-2.16-.25-.87-2.42,1.11-1.92-3.73-3.47-1.65,1.11-2.41-1.11-.43-2.24h-5.13l-.49,2.24-2.66,1-1.57-1.24-3.85,3.72,1.69,1.86-1.34,2.73h-2V66l2.1.12,1.28,2.36-1.52,1.8L101.09,74l1.76-1.3L105.56,74l-.06,2h5.44l.43-2.54,2.29-.93L115.44,74l4-3.41-1.53-2.29Zm-10.78,3.68a6.72,6.72,0,1,1,6.7-6.72A6.71,6.71,0,0,1,108.26,69.79Z"/><path class="cls-3" d="M106.54,43.3h1.78L108.08,39l-1.63-.19L105.79,37l.84-1.45L103.82,33l-1.25.84L100.75,33l-.33-1.69H96.54L96.17,33l-2,.74L93,32.77l-2.91,2.81L91.34,37l-1,2.06H88.79v4.17l1.59.09,1,1.78-1.15,1.36L93,49.3l1.33-1,2.06.94,0,1.54h4.11l.33-1.92,1.73-.7,1.34,1.12,3-2.57L105.7,45Zm-8.14,2.78A5.07,5.07,0,1,1,103.46,41,5.07,5.07,0,0,1,98.39,46.08Z"/><path class="cls-4" d="M97.25,108.31c-5.84,0-8.77-2.61-8.95-2.77a1.09,1.09,0,0,1-.34-.67c-.24-2-.33-2.79-6.41-2.79-3.68,0-5.91-.57-7-1.79a2.78,2.78,0,0,1-.71-2.19,3.45,3.45,0,0,1,.7-1.66l.08-.12a2.47,2.47,0,0,1-1-1.56,2.31,2.31,0,0,1,.3-1.53,2.79,2.79,0,0,1-.52-2.29c0-.23,0-.47,0-.73s-.08-.28-.86-.81a12.27,12.27,0,0,1-2-1.57c-1.79-1.79-.2-3.94,1.08-5.67a16,16,0,0,0,1.61-2.47,4.78,4.78,0,0,0,.51-3.15,71.23,71.23,0,0,1,.11-8.43s0-.07,0-.1c1.11-7.07,5.71-12,13.31-14.28a33.78,33.78,0,0,1,11-1.28,1.09,1.09,0,0,1-.16,2.17h0a32.11,32.11,0,0,0-10.3,1.21c-6.78,2-10.72,6.23-11.72,12.46a69.08,69.08,0,0,0-.1,8.15,6.88,6.88,0,0,1-.72,4.19,17.83,17.83,0,0,1-1.82,2.82c-1.24,1.67-1.69,2.43-1.29,2.83a10.27,10.27,0,0,0,1.64,1.3,3.12,3.12,0,0,1,1.82,2.61c0,.36,0,.66-.05.93-.06.68-.06.68.33.9l1.33.73a1.09,1.09,0,0,1-.52,2h-.51a2,2,0,0,1,.11,2.85,1.61,1.61,0,0,0-.33.64.6.6,0,0,0,.16.52c.29.32,1.4,1.07,5.4,1.07,5.68,0,7.91.66,8.5,4.26,1.25.91,6.6,4.05,16.68-.17.2-1.83,1-6.85,4-10,3.33-3.57,8.23-15.72,6.06-21.37a1.09,1.09,0,1,1,2-.78c2.57,6.7-2.82,19.69-6.5,23.64-3.07,3.29-3.45,9.3-3.45,9.36a1.09,1.09,0,0,1-.65.94A27.27,27.27,0,0,1,97.25,108.31Z"/><path class="cls-4" d="M108.26,70.27a7.19,7.19,0,1,0-7.18-7.19A7.19,7.19,0,0,0,108.26,70.27Zm-5.74-7.95a5.77,5.77,0,0,1,1-2.63l1.51,1.51L106.31,60l-1.53-1.53a5.75,5.75,0,0,1,2.64-1.11v2.18h1.74V57.34a5.75,5.75,0,0,1,2.62,1.12L110.27,60l1.23,1.23L113,59.72a5.77,5.77,0,0,1,1,2.6h-2v1.74h2a5.78,5.78,0,0,1-1.08,2.5l-1.39-1.39-1.23,1.23,1.37,1.38a5.75,5.75,0,0,1-2.48,1V66.87h-1.74v1.95a5.75,5.75,0,0,1-2.5-1l1.39-1.4-1.23-1.23-1.41,1.42a5.78,5.78,0,0,1-1.1-2.53h2.06V62.32Z"/><path class="cls-4" d="M102,74.51l1.08-1.08a11.51,11.51,0,0,0,1.8.73v2a.7.7,0,0,0,.69.7h5.61a.7.7,0,0,0,.69-.7V74.11a11.51,11.51,0,0,0,1.74-.73l1.47,1.48a.69.69,0,0,0,1,0l4-4a.7.7,0,0,0,0-1l-1.47-1.48a11.57,11.57,0,0,0,.73-1.74h2.08A.7.7,0,0,0,122,66V60.35a.7.7,0,0,0-.69-.7h-2a11.54,11.54,0,0,0-.73-1.8l1.07-1.07c.8-.8.24-1.44.24-1.44L116,51.47a.69.69,0,0,0-1,0l-1.36,1.36a11.5,11.5,0,0,0-1.85-.79V50.14a.7.7,0,0,0-.69-.7h-5.61a.7.7,0,0,0-.69.7V52a11.51,11.51,0,0,0-1.91.79l-1.3-1.3a.69.69,0,0,0-1,0l-4,4a.7.7,0,0,0,0,1l1.3,1.3a11.55,11.55,0,0,0-.79,1.91H95.35a.7.7,0,0,0-.69.7V66a.7.7,0,0,0,.69.7h1.9A11.56,11.56,0,0,0,98,68.53l-1.36,1.36a.7.7,0,0,0,0,1l2.69,2.7,1.16,1.16A1,1,0,0,0,102,74.51Zm-3.82-4.13,1.24-1.24a.7.7,0,0,0,.11-.85,10.16,10.16,0,0,1-1.06-2.5.69.69,0,0,0-.67-.51H96V61h1.67a.69.69,0,0,0,.67-.52,10.15,10.15,0,0,1,1-2.56.7.7,0,0,0-.11-.84l-1.18-1.18,3-3,1.18,1.18a.69.69,0,0,0,.84.11,10.11,10.11,0,0,1,2.55-1.05.7.7,0,0,0,.52-.67V50.84h4.23v1.73a.7.7,0,0,0,.51.67,10.12,10.12,0,0,1,2.49,1.06.69.69,0,0,0,.85-.11l1.24-1.24,3,3-1.29,1.29a.7.7,0,0,0-.11.83,10.16,10.16,0,0,1,1,2.45.69.69,0,0,0,.67.52h1.85v4.23h-1.9a.69.69,0,0,0-.67.51,10.16,10.16,0,0,1-1,2.4.7.7,0,0,0,.11.84l1.35,1.35-3,3L114.2,72a.69.69,0,0,0-.84-.11,10.12,10.12,0,0,1-2.39,1,.7.7,0,0,0-.51.67v1.9h-4.23V73.64a.7.7,0,0,0-.52-.67,10.11,10.11,0,0,1-2.45-1,.69.69,0,0,0-.83.11l-1.29,1.29Z"/><path class="cls-4" d="M118.34,47.42a4.08,4.08,0,1,0-4.07-4.08A4.08,4.08,0,0,0,118.34,47.42Zm-3.25-4.51a3.28,3.28,0,0,1,.59-1.49l.86.86.7-.7-.87-.87a3.26,3.26,0,0,1,1.5-.63v1.23h1V40.08a3.26,3.26,0,0,1,1.48.64l-.85.86.7.7.84-.84a3.28,3.28,0,0,1,.58,1.48h-1.16v1h1.14a3.28,3.28,0,0,1-.61,1.42l-.79-.79-.7.7.78.78a3.26,3.26,0,0,1-1.41.58v-1.1h-1v1.1a3.26,3.26,0,0,1-1.42-.57l.79-.79-.7-.7-.8.8a3.28,3.28,0,0,1-.63-1.44h1.17v-1Z"/><path class="cls-4" d="M114.77,49.82l.61-.61a6.53,6.53,0,0,0,1,.41v1.15a.39.39,0,0,0,.39.39H120a.39.39,0,0,0,.39-.39V49.59a6.53,6.53,0,0,0,1-.41l.84.84a.39.39,0,0,0,.56,0L125,47.76a.4.4,0,0,0,0-.56l-.84-.84a6.57,6.57,0,0,0,.41-1h1.18a.39.39,0,0,0,.39-.39V41.79a.39.39,0,0,0-.39-.39h-1.14a6.55,6.55,0,0,0-.41-1l.61-.61c.45-.45.13-.82.13-.82l-2.19-2.19a.39.39,0,0,0-.56,0l-.77.77a6.52,6.52,0,0,0-1.05-.45V36a.39.39,0,0,0-.39-.39h-3.19a.39.39,0,0,0-.39.39v1a6.53,6.53,0,0,0-1.08.45l-.74-.74a.39.39,0,0,0-.56,0L111.77,39a.4.4,0,0,0,0,.56l.74.74a6.55,6.55,0,0,0-.45,1.09h-1a.39.39,0,0,0-.39.39V45a.39.39,0,0,0,.39.39h1.08a6.56,6.56,0,0,0,.45,1.05l-.77.77a.4.4,0,0,0,0,.56l1.53,1.53.66.66A.59.59,0,0,0,114.77,49.82Zm-2.17-2.34.7-.71a.4.4,0,0,0,.06-.48,5.76,5.76,0,0,1-.6-1.42.39.39,0,0,0-.38-.29h-1v-2.4h.95a.39.39,0,0,0,.38-.3,5.76,5.76,0,0,1,.6-1.45.4.4,0,0,0-.06-.48l-.67-.67,1.69-1.7.67.67a.39.39,0,0,0,.48.06,5.74,5.74,0,0,1,1.45-.6.39.39,0,0,0,.3-.38v-1h2.4v1a.39.39,0,0,0,.29.38,5.74,5.74,0,0,1,1.41.6.39.39,0,0,0,.48-.06l.7-.71,1.7,1.7-.73.73a.4.4,0,0,0-.06.47,5.76,5.76,0,0,1,.56,1.39.39.39,0,0,0,.38.3h1v2.4h-1.08a.39.39,0,0,0-.38.29,5.76,5.76,0,0,1-.57,1.36.4.4,0,0,0,.06.48l.77.77-1.69,1.7-.77-.77a.39.39,0,0,0-.48-.06,5.74,5.74,0,0,1-1.36.57.39.39,0,0,0-.29.38v1.08h-2.4V49.33a.39.39,0,0,0-.3-.38,5.74,5.74,0,0,1-1.39-.56.39.39,0,0,0-.47.06l-.73.73Z"/><path class="cls-4" d="M98.19,46.2a5.4,5.4,0,1,0-5.39-5.4A5.4,5.4,0,0,0,98.19,46.2Zm-4.31-6a4.34,4.34,0,0,1,.78-2L95.8,39.4l.92-.92-1.15-1.15a4.32,4.32,0,0,1,2-.83v1.63h1.31V36.5a4.32,4.32,0,0,1,2,.84L99.7,38.47l.92.92,1.11-1.12a4.34,4.34,0,0,1,.77,2H101v1.31h1.51a4.34,4.34,0,0,1-.81,1.88l-1-1-.92.92,1,1a4.32,4.32,0,0,1-1.87.77V43.65H97.56v1.46a4.32,4.32,0,0,1-1.88-.76l1-1-.92-.92-1.06,1.06a4.34,4.34,0,0,1-.83-1.9h1.54V40.23Z"/><path class="cls-4" d="M93.47,49.39l.81-.81a8.64,8.64,0,0,0,1.35.55v1.52a.52.52,0,0,0,.52.52h4.22a.52.52,0,0,0,.52-.52V49.08a8.64,8.64,0,0,0,1.3-.55l1.11,1.11a.52.52,0,0,0,.74,0l3-3a.52.52,0,0,0,0-.74l-1.11-1.11a8.69,8.69,0,0,0,.55-1.31H108a.52.52,0,0,0,.52-.52V38.75a.52.52,0,0,0-.52-.52H106.5a8.66,8.66,0,0,0-.55-1.35l.8-.8c.6-.6.18-1.08.18-1.08l-2.9-2.9a.52.52,0,0,0-.74,0l-1,1a8.64,8.64,0,0,0-1.39-.59V31.09a.52.52,0,0,0-.52-.52H96.15a.52.52,0,0,0-.52.52v1.39a8.64,8.64,0,0,0-1.43.59l-1-1a.52.52,0,0,0-.74,0l-3,3a.52.52,0,0,0,0,.74l1,1a8.67,8.67,0,0,0-.59,1.44H88.5a.52.52,0,0,0-.52.52V43a.52.52,0,0,0,.52.52h1.43a8.68,8.68,0,0,0,.59,1.39l-1,1a.52.52,0,0,0,0,.74l2,2,.87.87A.78.78,0,0,0,93.47,49.39Zm-2.87-3.1.93-.93a.52.52,0,0,0,.08-.64,7.63,7.63,0,0,1-.8-1.88.52.52,0,0,0-.5-.38H89V39.28h1.26a.52.52,0,0,0,.51-.39A7.62,7.62,0,0,1,91.57,37a.52.52,0,0,0-.08-.63l-.88-.89,2.24-2.25.88.89a.52.52,0,0,0,.63.08,7.59,7.59,0,0,1,1.92-.79.52.52,0,0,0,.39-.51V31.61h3.17v1.3a.52.52,0,0,0,.38.5,7.6,7.6,0,0,1,1.87.8.52.52,0,0,0,.64-.08l.93-.93,2.24,2.25-1,1a.52.52,0,0,0-.09.63,7.63,7.63,0,0,1,.74,1.84.52.52,0,0,0,.51.39h1.39v3.18h-1.42a.52.52,0,0,0-.5.38,7.63,7.63,0,0,1-.75,1.8.52.52,0,0,0,.08.63l1,1-2.24,2.25-1-1a.52.52,0,0,0-.63-.08,7.6,7.6,0,0,1-1.79.75.52.52,0,0,0-.38.5v1.43H96.67V48.73a.52.52,0,0,0-.39-.51,7.59,7.59,0,0,1-1.84-.74.52.52,0,0,0-.63.09l-1,1Z"/></g></g></svg>