<svg xmlns="http://www.w3.org/2000/svg" viewBox="0 0 195.99 195.99"><defs><style>.cls-1{fill:none;stroke:#054c7f;stroke-miterlimit:10;}.cls-2{fill:#054c7f;}.cls-3{fill:#25a9e0;}.cls-4{fill:#8bc53f;}</style></defs><title>UNIQUE APPROACH</title><g id="Layer_2" data-name="Layer 2"><g id="Layer_1-2" data-name="Layer 1"><path d="M73.76,133.88a3.21,3.21,0,0,0,1.59-.36,2.87,2.87,0,0,0,1-.92,3.72,3.72,0,0,0,.53-1.3,7.21,7.21,0,0,0,.15-1.49V124.5h1.39v5.31a7.83,7.83,0,0,1-.25,2,4.75,4.75,0,0,1-.81,1.68,3.88,3.88,0,0,1-1.44,1.15,5.69,5.69,0,0,1-4.35,0,4,4,0,0,1-1.44-1.18,4.69,4.69,0,0,1-.79-1.69,8.05,8.05,0,0,1-.24-2V124.5H70.5v5.31a7,7,0,0,0,.16,1.52,3.74,3.74,0,0,0,.54,1.29,2.86,2.86,0,0,0,1,.91A3.18,3.18,0,0,0,73.76,133.88Z"/><path d="M82.27,127v8H80.88V124.5H82l6.78,8.18v-8.17h1.39V135H89Z"/><path d="M92.74,135V124.51h1.39V135Z"/><path d="M104.14,134.14a5.39,5.39,0,0,1-1.36.68,4.84,4.84,0,0,1-1.57.25,4.77,4.77,0,0,1-2.1-.46,5.27,5.27,0,0,1-2.67-2.9,5.45,5.45,0,0,1-.37-2,5.27,5.27,0,0,1,.39-2,5.51,5.51,0,0,1,1.09-1.7,5.21,5.21,0,0,1,1.64-1.18,4.86,4.86,0,0,1,2.06-.44,4.65,4.65,0,0,1,2.09.47,5.34,5.34,0,0,1,1.62,1.22,5.52,5.52,0,0,1,1,1.71,5.33,5.33,0,0,1,.37,1.95,5.26,5.26,0,0,1-.39,2,5.55,5.55,0,0,1-1.09,1.69l1.37,1.52h-1.36Zm-2.91-.27a3.49,3.49,0,0,0,1.13-.18,3.61,3.61,0,0,0,1-.49l-1.46-1.64h1.36l.83.93a4.5,4.5,0,0,0,.69-1.29,4.45,4.45,0,0,0,.25-1.46,4.52,4.52,0,0,0-.27-1.55,4.16,4.16,0,0,0-.77-1.32,3.78,3.78,0,0,0-1.19-.92,3.36,3.36,0,0,0-1.52-.34,3.39,3.39,0,0,0-1.57.36,3.71,3.71,0,0,0-1.18.94,4.29,4.29,0,0,0-.75,1.32,4.52,4.52,0,0,0,0,3.05,4.22,4.22,0,0,0,.76,1.32,3.67,3.67,0,0,0,1.19.92A3.44,3.44,0,0,0,101.23,133.88Z"/><path d="M112.82,133.88a3.21,3.21,0,0,0,1.59-.36,2.87,2.87,0,0,0,1-.92,3.72,3.72,0,0,0,.53-1.3,7.21,7.21,0,0,0,.15-1.49V124.5h1.39v5.31a7.83,7.83,0,0,1-.25,2,4.75,4.75,0,0,1-.81,1.68,3.88,3.88,0,0,1-1.44,1.15,5.69,5.69,0,0,1-4.35,0,4,4,0,0,1-1.44-1.18,4.69,4.69,0,0,1-.79-1.69,8.05,8.05,0,0,1-.24-2V124.5h1.39v5.31a7,7,0,0,0,.16,1.52,3.74,3.74,0,0,0,.54,1.29,2.86,2.86,0,0,0,1,.91A3.18,3.18,0,0,0,112.82,133.88Z"/><path d="M127.36,133.82V135h-7.42V124.5h7.29v1.18h-5.9v3.4h5.13v1.11h-5.13v3.63Z"/><path d="M58.14,152.75l4.21-10.5h2l4.19,10.5H65.9l-.85-2.35h-3.4l-.83,2.35Zm5.22-7.93L62,148.73h2.57Z"/><path d="M69.58,152.75v-10.5h4.67a3.32,3.32,0,0,1,1.44.31,3.69,3.69,0,0,1,1.13.81,3.87,3.87,0,0,1,.74,1.14,3.27,3.27,0,0,1,.27,1.29,3.56,3.56,0,0,1-.25,1.33,3.79,3.79,0,0,1-.71,1.14,3.33,3.33,0,0,1-1.1.8,3.4,3.4,0,0,1-1.43.3H72.11v3.39Zm2.53-5.5h2.06a1,1,0,0,0,.77-.37,1.6,1.6,0,0,0,.32-1.08,1.82,1.82,0,0,0-.1-.64,1.29,1.29,0,0,0-.27-.44,1,1,0,0,0-.38-.26,1.21,1.21,0,0,0-.43-.08h-2Z"/><path d="M79.13,152.75v-10.5H83.8a3.32,3.32,0,0,1,1.44.31,3.69,3.69,0,0,1,1.13.81,3.87,3.87,0,0,1,.74,1.14,3.27,3.27,0,0,1,.27,1.29,3.56,3.56,0,0,1-.25,1.33,3.79,3.79,0,0,1-.71,1.14,3.33,3.33,0,0,1-1.1.8,3.4,3.4,0,0,1-1.43.3H81.66v3.39Zm2.53-5.5h2.06a1,1,0,0,0,.77-.37,1.6,1.6,0,0,0,.32-1.08,1.82,1.82,0,0,0-.1-.64,1.29,1.29,0,0,0-.27-.44,1,1,0,0,0-.38-.26,1.21,1.21,0,0,0-.43-.08h-2Z"/><path d="M88.68,152.75v-10.5h4.93a3.28,3.28,0,0,1,1.42.31,3.77,3.77,0,0,1,1.88,2,3.27,3.27,0,0,1,.27,1.29,3.54,3.54,0,0,1-.48,1.79,3.25,3.25,0,0,1-.56.72,3.39,3.39,0,0,1-.75.54l2.51,3.91H95.06l-2.2-3.39H91.21v3.39Zm2.53-5.5h2.31a1,1,0,0,0,.77-.41,1.62,1.62,0,0,0,.32-1,1.43,1.43,0,0,0-.37-1,1.1,1.1,0,0,0-.8-.38H91.21Z"/><path d="M103.59,152.84a4.85,4.85,0,0,1-2.13-.46,5.31,5.31,0,0,1-1.64-1.21,5.46,5.46,0,0,1-1.06-1.71,5.37,5.37,0,0,1-.38-2,5.23,5.23,0,0,1,.39-2,5.29,5.29,0,0,1,2.76-2.86,5,5,0,0,1,2.1-.44,4.85,4.85,0,0,1,2.13.46,5.28,5.28,0,0,1,1.64,1.21,5.53,5.53,0,0,1,1.42,3.67,5.23,5.23,0,0,1-.39,2,5.42,5.42,0,0,1-1.09,1.69,5.33,5.33,0,0,1-1.66,1.18A5,5,0,0,1,103.59,152.84ZM101,147.52a3.93,3.93,0,0,0,.18,1.18,3.34,3.34,0,0,0,.51,1,2.46,2.46,0,0,0,.83.71,2.4,2.4,0,0,0,1.15.27,2.29,2.29,0,0,0,1.16-.28,2.6,2.6,0,0,0,.82-.73,3.16,3.16,0,0,0,.49-1,4.25,4.25,0,0,0,.16-1.16,3.94,3.94,0,0,0-.18-1.18,3.16,3.16,0,0,0-.52-1,2.54,2.54,0,0,0-.83-.7,2.39,2.39,0,0,0-1.12-.26,2.35,2.35,0,0,0-1.16.27,2.58,2.58,0,0,0-.82.72,3.19,3.19,0,0,0-.5,1A4,4,0,0,0,101,147.52Z"/><path d="M108.82,152.75l4.21-10.5h2l4.19,10.5h-2.68l-.85-2.35h-3.4l-.83,2.35Zm5.22-7.93-1.31,3.91h2.57Z"/><path d="M119.63,147.41a5.32,5.32,0,0,1,.35-1.89,5.14,5.14,0,0,1,4.91-3.34,4.91,4.91,0,0,1,2.54.64,4.06,4.06,0,0,1,1.6,1.66l-1.94,1.3a2.17,2.17,0,0,0-.43-.69,2.37,2.37,0,0,0-.57-.44,2.24,2.24,0,0,0-.64-.24,3.22,3.22,0,0,0-.62-.07,2.32,2.32,0,0,0-1.17.28,2.57,2.57,0,0,0-.82.72,3.18,3.18,0,0,0-.49,1,4.12,4.12,0,0,0-.16,1.14,3.77,3.77,0,0,0,.19,1.2,3.38,3.38,0,0,0,.54,1,2.57,2.57,0,0,0,.84.7,2.31,2.31,0,0,0,1.09.26,2.7,2.7,0,0,0,.64-.08,2.64,2.64,0,0,0,.64-.25,2.14,2.14,0,0,0,.55-.44,2.17,2.17,0,0,0,.4-.67l2.08,1.17a3.19,3.19,0,0,1-.72,1,4.43,4.43,0,0,1-1.07.77,5.76,5.76,0,0,1-2.59.64,4.67,4.67,0,0,1-2.09-.47,5.28,5.28,0,0,1-1.63-1.24A5.8,5.8,0,0,1,120,149.4,5.36,5.36,0,0,1,119.63,147.41Z"/><path d="M139.89,142.25v10.5h-2.53v-4.31H133v4.31h-2.53v-10.5H133v4.07h4.36v-4.07Z"/><circle class="cls-1" cx="98" cy="98" r="97.5"/><path class="cls-2" d="M136.6,81.08c-2.16,1.17-2.94.59-3.1-2.14-.82-14.25-7.65-24.71-20.44-30.85C91.77,37.87,66.4,51.57,63,74.87a35.94,35.94,0,0,0,1.29,16.27,9.68,9.68,0,0,1,.37,1.29,1.56,1.56,0,0,1-1.14,2c-1,.27-1.42-.36-1.74-1.17A35.9,35.9,0,0,1,59.51,83.1a38.68,38.68,0,0,1,76.87-8.21,7.18,7.18,0,0,0,.22.81Z"/><path class="cls-2" d="M84.45,115.74a1.91,1.91,0,0,1-.34-2.82C88,106.82,89,100.05,88.89,93c-.07-4-.79-8-.87-12.06-.1-5.7,3.15-9.88,8.33-10.73s9.58,2.14,11.3,7.59c1.28,4,.95,8.2.71,12.33a1.55,1.55,0,0,1-1.61,1.62c-1.09,0-1.52-.86-1.53-1.86,0-2.58,0-5.15,0-7.73a11.26,11.26,0,0,0-1.39-5.31,6.66,6.66,0,0,0-12.58,3c.13,4.08.66,8.14.84,12.22.38,8.46-.94,16.53-5.94,23.65Z"/><path class="cls-2" d="M103,115.74a2.2,2.2,0,0,1-.49-2.32A61.12,61.12,0,0,0,105,97.75c0-1.07.36-2.08,1.72-2s1.4,1,1.41,2.06a56.05,56.05,0,0,1-2.84,16.79,5.65,5.65,0,0,1-.67,1.15Z"/><path class="cls-2" d="M98.14,48.67c16.4.08,28,10,31.12,26.46.6,3.14,1.1,6.29,1.65,9.44,0,.17,0,.33.06.5.1,1.1-.06,2.13-1.38,2.28s-1.65-.77-1.82-1.79c-.47-2.76-.91-5.53-1.39-8.29-1-6-3-11.62-7-16.36-4.66-5.55-10.8-8.11-17.87-8.94A28.85,28.85,0,0,0,70.83,72.15c-1.61,5.46-1.13,10.84.06,16.28A13.94,13.94,0,0,1,68.7,100l-.29.41c-.67.93-1.46,1.75-2.63.87s-.61-1.77.05-2.65A9.88,9.88,0,0,0,68,91.73a32.46,32.46,0,0,0-.72-4.82C63.5,70.52,73.84,54.19,89.66,49.84a29.84,29.84,0,0,1,3.44-.77A24.37,24.37,0,0,1,98.14,48.67Z"/><path class="cls-3" d="M76.83,81c.22,2,.52,4.87.83,7.71.68,6.13-.19,11.86-4.33,16.74A10.12,10.12,0,0,1,71.78,107a1.45,1.45,0,0,1-2-.21,1.39,1.39,0,0,1-.18-2,2.7,2.7,0,0,1,.32-.39c4.41-4.41,5.14-9.85,4.47-15.73-.55-4.83-1.42-9.62-.17-14.52a24.6,24.6,0,0,1,31.61-17.15c.32.11.63.22.95.35,1,.41,1.62,1.11,1.16,2.22s-1.28,1.11-2.26.75A22.25,22.25,0,0,0,98,59C86.28,59,76.78,68.54,76.83,81Z"/><path class="cls-2" d="M83.89,80.26c.38,5.6.77,10.86.66,16.13a20.6,20.6,0,0,1-.67,5c-.26,1-.83,1.69-1.91,1.46s-1.23-1.12-1.06-2.12c1-6.15.42-12.32-.11-18.44-.72-8.37,4.49-16.42,12.5-18.69a17.23,17.23,0,0,1,20.39,9.24,6.76,6.76,0,0,1,.45,1.08,1.56,1.56,0,0,1-.82,2,1.45,1.45,0,0,1-2-.7c-.5-.8-.85-1.7-1.35-2.51a13.88,13.88,0,0,0-14.79-6.29,14.14,14.14,0,0,0-11,11.22A11.3,11.3,0,0,0,83.89,80.26Z"/><path class="cls-3" d="M123.8,90.74a138,138,0,0,1-1.31,15.73c0,.17-.06.33-.1.49-.26,1-.85,1.78-2,1.57s-1.26-1.1-1.12-2.09a109.66,109.66,0,0,0,1.18-17.75A47.79,47.79,0,0,0,117.09,71a20.6,20.6,0,0,0-5.39-7.82c-.78-.68-1.42-1.49-.63-2.44s1.9-.69,2.81.1c4,3.48,6.15,8.05,7.67,13C123.25,79.33,123.61,85,123.8,90.74Z"/><path class="cls-2" d="M116.82,91A117.24,117.24,0,0,1,114,112.59c-.22,1.06-.69,2-2,1.79s-1.37-1.4-1.15-2.54a134.22,134.22,0,0,0,2.5-16.61c.33-4.82.41-9.63-1-14.33a1.54,1.54,0,0,1,.8-2.11c1-.42,1.62.1,2.07.91a11.6,11.6,0,0,1,1.15,4.71A46.42,46.42,0,0,1,116.82,91Z"/><path class="cls-4" d="M101,89.84A71.54,71.54,0,0,1,100,102.51c-.16,1.09-.49,2.25-1.91,2s-1.44-1.34-1.27-2.48a77.1,77.1,0,0,0,1-13.36,42.76,42.76,0,0,0-1-8.64c-.26-1.14-.54-2.41,1-2.71s2,.9,2.22,2.14A44.31,44.31,0,0,1,101,89.84Z"/><path class="cls-2" d="M131,94.5c0,.95,0,1.9,0,2.84a1.51,1.51,0,0,1-3,.19,23.44,23.44,0,0,1,0-6.33,1.5,1.5,0,0,1,3,.28c0,1,0,2,0,3Z"/><path class="cls-4" d="M98.07,108.84c-.47,1.71-1,3.67-1.57,5.58a1.41,1.41,0,0,1-1.76.95,1.36,1.36,0,0,1-1-1.69A30.4,30.4,0,0,1,95.19,108a1.41,1.41,0,0,1,1.79-.87C97.72,107.32,98.12,107.81,98.07,108.84Z"/><path class="cls-2" d="M82.51,107.63a15.55,15.55,0,0,1-3.67,5.18c-.53.43-1.19.15-1.69-.28A1.25,1.25,0,0,1,76.7,111,21.11,21.11,0,0,1,80,106a1.37,1.37,0,0,1,1.72-.08C82.31,106.25,82.55,106.72,82.51,107.63Z"/></g></g></svg>